<svg width="16" height="16" viewBox="0 0 16 16" fill="none" xmlns="http://www.w3.org/2000/svg">
<g id="Icon / Filled / Star">
<path id="Vector" d="M14.1085 5.51641L10.1638 4.93985L8.40048 1.34454C8.35232 1.2461 8.27308 1.16641 8.17521 1.11797C7.92973 0.9961 7.63144 1.09766 7.5087 1.34454L5.74534 4.93985L1.80069 5.51641C1.69194 5.53204 1.59251 5.5836 1.51638 5.66172C1.42435 5.75686 1.37363 5.88485 1.37538 6.01757C1.37713 6.15029 1.4312 6.27689 1.5257 6.36954L4.37971 9.16797L3.70543 13.1195C3.68962 13.2115 3.69974 13.306 3.73463 13.3924C3.76952 13.4789 3.8278 13.5537 3.90285 13.6086C3.9779 13.6634 4.06672 13.696 4.15925 13.7026C4.25177 13.7092 4.34429 13.6897 4.42631 13.6461L7.95459 11.7805L11.4829 13.6461C11.5792 13.6977 11.6911 13.7148 11.7983 13.6961C12.0686 13.6492 12.2504 13.3914 12.2037 13.1195L11.5295 9.16797L14.3835 6.36954C14.4612 6.29297 14.5124 6.19297 14.528 6.0836C14.5699 5.81016 14.3804 5.55704 14.1085 5.51641Z" fill="#FADB14"/>
</g>
</svg>
